<svg id="Group_6" data-name="Group 6" xmlns="http://www.w3.org/2000/svg" width="19.949" height="19.951" viewBox="0 0 19.949 19.951">
  <g id="Group_6-2" data-name="Group 6">
    <path id="Path_2" data-name="Path 2" d="M20.114,20.579a3.14,3.14,0,0,1-.336-.257q-2.881-2.874-5.756-5.754a1.589,1.589,0,0,1-.143-.2,7.823,7.823,0,0,1-7.011,1.858,7.614,7.614,0,0,1-4.822-3.273A7.884,7.884,0,0,1,13.647,2.5a7.629,7.629,0,0,1,2.793,5.48,7.76,7.76,0,0,1-2,5.816c.057.06.108.116.161.17q2.884,2.885,5.767,5.771a3.15,3.15,0,0,1,.258.336v.195l-.312.312ZM15.634,8.541a7.06,7.06,0,1,0-7.074,7.05,7.061,7.061,0,0,0,7.074-7.05" transform="translate(-0.671 -0.628)" fill="#383e41"/>
    <path id="Path_3" data-name="Path 3" d="M403.212,403.524l.312-.312v.312Z" transform="translate(-383.574 -383.572)" fill="#383e41"/>
  </g>
</svg>
